<svg xmlns="http://www.w3.org/2000/svg" viewBox="0 0 560 360" fill="none" aria-hidden="true">
  <defs>
    <linearGradient id="hbg" x1="0" y1="0" x2="560" y2="360" gradientUnits="userSpaceOnUse">
      <stop stop-color="#e8f4f1"/>
      <stop offset="1" stop-color="#bfe3d8"/>
    </linearGradient>
    <linearGradient id="hscreen" x1="80" y1="60" x2="480" y2="280" gradientUnits="userSpaceOnUse">
      <stop stop-color="#f8fffc"/>
      <stop offset="1" stop-color="#eaf7f2"/>
    </linearGradient>
    <filter id="hsh" x="-20%" y="-20%" width="140%" height="140%">
      <feDropShadow dx="0" dy="12" stdDeviation="16" flood-color="#0A4A48" flood-opacity="0.18"/>
    </filter>
  </defs>
  <rect width="560" height="360" rx="28" fill="url(#hbg)"/>
  <g filter="url(#hsh)">
    <rect x="56" y="40" width="448" height="252" rx="18" fill="#fff" stroke="#0A4A48" stroke-width="2"/>
    <rect x="72" y="56" width="416" height="220" rx="10" fill="url(#hscreen)" stroke="#0A4A48" stroke-opacity="0.12"/>
    <rect x="88" y="72" width="120" height="10" rx="4" fill="#0A4A48" fill-opacity="0.2"/>
    <rect x="88" y="96" width="360" height="8" rx="3" fill="#0A4A48" fill-opacity="0.1"/>
    <rect x="88" y="114" width="320" height="8" rx="3" fill="#0A4A48" fill-opacity="0.1"/>
    <rect x="88" y="132" width="280" height="8" rx="3" fill="#0A4A48" fill-opacity="0.1"/>
    <circle cx="280" cy="200" r="36" fill="#0A4A48" fill-opacity="0.12"/>
    <path d="M268 200l10 8 18-22" stroke="#0A4A48" stroke-width="4" stroke-linecap="round" stroke-linejoin="round"/>
  </g>
  <rect x="120" y="292" width="320" height="14" rx="7" fill="#0A4A48" fill-opacity="0.25"/>
  <text x="280" y="338" text-anchor="middle" fill="#0A4A48" font-family="Segoe UI, system-ui, sans-serif" font-size="17" font-weight="700" letter-spacing="0.04em">TutorTime workspace</text>
</svg>
